<svg xmlns="http://www.w3.org/2000/svg" xmlns:inkscape="http://www.inkscape.org/namespaces/inkscape" xmlns:sodipodi="http://sodipodi.sourceforge.net/DTD/sodipodi-0.dtd" inkscape:version="1.4.3 (0d15f75042, 2025-12-25)" sodipodi:docname="otter.svg" xml:space="preserve" id="svg810" width="621.4" height="422.1" preserveAspectRatio="xMidYMid" version="1.2"><defs id="defs810"><style id="style1">.cls-1{fill:#aed0ea}.cls-2{fill:#3489ca}</style></defs><sodipodi:namedview inkscape:current-layer="svg810" inkscape:cx="234.8" inkscape:cy="305.1" inkscape:deskcolor="#d1d1d1" inkscape:pagecheckerboard="0" inkscape:pageopacity="0" inkscape:showpageshadow="2" inkscape:window-height="1368" inkscape:window-maximized="1" inkscape:window-width="2560" inkscape:window-x="0" inkscape:window-y="0" inkscape:zoom="1.4" id="namedview810" bordercolor="#000000" borderopacity=".3" pagecolor="#ffffff" showgrid="false"/><ellipse inkscape:label="background" id="path1" cx="137.6" cy="343.2" rx="246.6" ry="195.9" style="fill:#f2f2f2;stroke-width:.950086" transform="rotate(-35)scale(.999 1)skewY(2.7)"/><g inkscape:label="logo" id="Layer_1-2" transform="translate(210.2)scale(.2908)"><path inkscape:label="bottom" id="path4-9" d="M522 1137.5c84.7 0 153.5 68.8 153.5 153.5v153.5h-307V1291c0-84.7 68.8-153.5 153.5-153.5" class="cls-2" transform="rotate(180 522 1291)"/><path inkscape:label="mid-bottom" id="path2-6" d="M0 757h891a155 155 0 0 1 0 310H0Z" class="cls-1" style="display:inline;opacity:1" transform="rotate(180 523 912)"/><path inkscape:label="mid-top" id="path1-5" d="M368 376h891a155 155 0 0 1 0 310H368Z" class="cls-2"/><path inkscape:label="top" id="path3-2" d="M888.5 0C973.2 0 1042 68.8 1042 153.5V307H735V153.5C735 68.8 803.8 0 888.5 0" class="cls-1"/></g><g inkscape:label="limbs" id="g791" fill="#75482f" style="display:inline;fill:#75482f;fill-opacity:1" transform="translate(-32.6 -45.3)"><path inkscape:label="leg-shade-left" sodipodi:nodetypes="scscccccccccccccccccscccsccccccc" id="path240" d="M325.7 355.5c.5 5.3-6.9 24-17 39.2-20.2 25-39.2 32.5-51.3 31-6.8-1-8.6-5-9-12.8-8-2-36.5-12.3-46.3-12.8-3.2 2-7.7 25.4-18.3 30.9-33.1 17.1-123.8 26.3-146.4 18.8-4.1 2.5-1 4.7-1.7 5.5 6 1.1 23.3 5.1 38.4 6.3 27.8.2 73.4-1.2 100.4-5.6 34-8.5 61.7-24.4 67.2-26.8.3 4.7.1 9.5 0 10.8-8.3 3.4-20.2 10.6-22.1 16.7 1.7 4.6 14 8.5 6 7.8-3.2-1.8 20.6.7 28.5-.9 4.2-.7 15.2-3.6 26.4-7.6 4.6-3.5 7.1-13.8 7-16.3 8-3.7 22.7-13.8 28.6-19.3 4-4.9 16.4-23 22.4-32.2a582 582 0 0 0 12.2-32.8zM243 442.8c1.3 0 22 5.8 20.6 9.3-.5 1.3-5.8 3.8-13 6.3-14.6 5 3.6-6-2.3-6-.3 0-3.7 1-6.7 5-2.5 3.5-9.3 3.5-13.1 2.4 2.5-4.7 8-8 7.7-10.5-1.5-.7-5.3 1.6-8.2 4-3.2 3.2-3.4 5.3-4.5 4-1.1-2 .1-3.4 2.2-5.4 4.8-4 13.4-8.5 17.3-9" style="fill:#75482f;fill-opacity:1"/><path inkscape:label="leg-shade-right" sodipodi:nodetypes="ccccc" id="path739" d="M180.3 414.4C167 411.5 135 357 132 351c1.5-12 5.4-12.2 10.2-13.7 2.6-.7 7.3-.4 11.2 1.8 12.3 5 43.2 69 26.9 75.3" style="fill:#75482f;fill-opacity:1"/><path inkscape:label="arm-shade-right" sodipodi:nodetypes="ccccccc" id="path624" d="M231 277c-10.6-2-32-11.7-43.6-19.6-7.8 1.7-17 2.8-23.4 1.6a70 70 0 0 0 25.9-8.3c3.7 2.7 5.4 9.3 31 10.6 9.7 0 19.6-7 24-12-2 4.5-8.7 19.7-13.9 27.6" style="fill:#75482f;fill-opacity:1"/><path inkscape:label="hand-shade-left" sodipodi:nodetypes="ccccsccccccc" id="path279" d="M310.1 288.1c-1.8-11.5 4.3-26.7 2.4-15.6-1 3.6-1 11.4-.2 11.4 1.2-5.7 3.5-11.2 5.3-11.2 2.3 1.9-2.5 14.7-.3 18.1 3 4.6 5.8-8.7 7.1-11.9 2-4 3.9-3.5 2.9.8-.6 2.3-.7 6.9-.3 10 3-1.5 5.5-6.2 7.4-10 3.8-12.8 15.5-10.7 11.1-8.8-3 5.2-10 18-14.5 22.2a18 18 0 0 1-20.9-5" style="display:inline;fill:#75482f;fill-opacity:1"/><path inkscape:label="hand-shade-right" id="path747" d="M175.6 243.6c0-4 6-7.4 10-5.9 2 .8 2 1.8 0 1.8-2.2 0-6.4 2.3-7.8 4.2q-2.3 3.2-2.2-.1" style="fill:#75482f;fill-opacity:1"/></g><path inkscape:label="body" sodipodi:nodetypes="sccccccccccccccccscccscccccccccccccccccccccssscssccssc" id="path151" d="M268.3 17.6c-28.1 0-52 16.7-54.3 19-2.4 2.4-14.5 16-16.4 20-6.3 1.8-14 4.7-17 11.7.4 12.3 7.2 15.4 12 18-.3 7.8 2 19.5 2.9 26 1.8 3.2 11 15.3 18 20.2 3.9 30.7-6.4 51.2-40 54.8-11-1.1-28.6-13.3-34.2-14.3-1.2 3.5.5 9 1.7 13.1-3 1.2-25.7 5.3-24.6 18.2 5.9 13.4 32 8.7 37.9 7.3 9.5 6.6 26 17 45.3 19.5-3.4 5.7-18.9 29.5-22 33.8-5.6 2.5-12.8 5.3-14.7 6.7a72 72 0 0 0-19.1 41.4c-4-7.8-7.2-14.2-14.9-23.5a59 59 0 0 0-17.6-2.3c-6.7.5-5.6 10.4-10.7 13.4-3 8.4 28 51.3 31.4 57.5a316 316 0 0 1-32.4 18.1c-18.2 5.8-42 10.6-68.7 16.4-9.8 2.2-25 7.7-28.7 14.8 7.2 5.4 47.2 9 63.6 9.2 18.1-.3 64.8-2.5 93.7-10.4 9.6-3.4 38-15.3 49.8-23.7 0 4 0 7.6-.4 12.5-2.5 1-17 7.9-20.8 14.5 0 3.3 3.3 10.9 15.1 10.3a138 138 0 0 0 51.5-15c-.1-2.8.3-6 0-10.3a145 145 0 0 0 39.3-31.9 248 248 0 0 0 24-52.6c.8-10.6-4.2-47.8-5.7-55-1.4-12.8 11.6-23.2 19.3-29.5 7.6-3.6 19.2-5.3 23-13 5.3-10.5 1.2-27.4-1.4-32.6-3-8.9-11-23.6-19.2-35.7-1.1-4.2-3.4-31.3-4.5-37.6 3-6.7 6.6-15 6.8-23 0-5.1-4.7-24-6.2-29.3a53 53 0 0 0 3.6-17.2c-4.8-7.2-12.6-7.9-21.5-5.5-5.1-3.5-18.3-14-44-14M291 53.2c3.5.2 3.9 4 1.5 8.2-4.5.7-8.8-3-4.5-7.7q1.8-.6 3-.5m-64 14.4h1c7.4 3.5 2 8.3-2 8.8-3.6-3.5-3.5-9 1-8.8" style="display:inline;fill:#b0784f;fill-opacity:1"/><path inkscape:label="belly" sodipodi:nodetypes="cccccccscsccccccccccccc" id="path7" d="M201.3 253.6c13.5-24.1 22.7-39.8 27.4-66.3 1.5-13 2.4-29.7-.7-38.8-2.2-5.7-3.5-7.5-5.8-11.4a70 70 0 0 1-26.7-27.3c0-2.4 3.4-30.3 30.5-22.7 7.3 2 15.1-8.6 27.1-13.4 5.3-1.8 10.8-4.2 15.4-2.8 8.2 2.4 18 5.9 26 4.5 3.9-.6 9.5-3 11.5-3.7 15.4-6 24.1-6.8 29.6 17.9-2.7 8.8-9.2 19-17.1 27.4-4 3.3-3.5 6.7-5.4 11.2a136 136 0 0 0-8.5 47.7l-.2 19a98 98 0 0 0-18.3 15.1c-5 9.4-9.5 19.6-10.5 24.7 3.8 10.4 8.4 13.6 10.8 15.6 9.3-.7 13.5-3.5 16-5a276 276 0 0 1-26 77.4c-9.5 14-38 38.2-74.6 15.6-35.1-22.5-10-70.1-.5-84.7" style="display:inline;fill:#fce9c2;fill-opacity:1"/><g inkscape:label="face" id="g810" fill="#11110f" style="display:inline" transform="translate(-32.6 -45.3)"><path inkscape:label="face-shade" sodipodi:nodetypes="ccccccc" id="rect2" d="M344 159s18.8-9.5 21.6-33.2l.7 2c.5 3 .7 9.8-3 18.6 0 0-4 8.2-14.6 18-38 26.9-61 19-77.6 12.8 49.1 1.8 73-18.3 73-18.3" style="fill:#d7b78d;fill-opacity:1"/><path inkscape:label="mouth-shade-right" sodipodi:nodetypes="cccccc" id="rect2-5-5" d="M294.6 143.8c-1.2 1.3-8.2 10-18.5 10-7.6-.3-8.3-2-10.4-3-.8 2 6.2 5.5 11.2 5a26 26 0 0 0 10.4-3c2.8-1.6 6-4.3 7.3-9" style="fill:#d7b78d;fill-opacity:1"/><path inkscape:label="mouth-shade-left" sodipodi:nodetypes="cccccc" id="rect2-5" d="M328.5 137c-.9 2.4-4.2 6.6-11.9 7.7-10.5.8-15.3-1.2-17.9-2.2.7 2.6 7.9 4 12.4 4.2 4.5.1 6.9.2 10.5-1.4 5-2.7 8.5-6.3 7-8.4" style="fill:#d7b78d;fill-opacity:1"/><path inkscape:label="ear-left" sodipodi:nodetypes="cccc" id="path773" d="M214.5 118c1.8-3.3 9.4-5.6 13.3-4-1 4-2.4 13.4-4.2 15.7-2.6-1.2-8-7.5-9.1-11.6" style="fill:#75482f;fill-opacity:1"/><path inkscape:label="ear-right" sodipodi:nodetypes="cccc" id="path784" d="M361.6 97a34 34 0 0 1-8.3-13.8c3.1-.8 12-1.2 12.9.8.6 6.3-.6 12-4.6 13" style="fill:#75482f;fill-opacity:1"/><path inkscape:label="eye-left" sodipodi:nodetypes="cccccccc" id="path807" d="M255.2 128.4c-12.7-6.6 2.7-24.4 10-12.1 3.6 7.2-2 16.2-10 12m6.6-8.7c3.8-3.2-1-8.4-4.4-5.3-3 2.9.7 8.2 4.4 5.3"/><path inkscape:label="eye-right" sodipodi:nodetypes="cccccc" id="path808" d="M321.1 113.4c-11.8-7 1.9-24 10.8-11.7 3.9 7.7-3.8 16-10.8 11.7m4.4-9.4c1.6-3.4-2-6.7-4.6-4.4-4.6 4 2.4 8.9 4.6 4.4" style="display:inline"/><path inkscape:label="brow-left" sodipodi:nodetypes="ccsc" id="path809" d="M258 95c.1 1-.4 1.6-3.2 2.7-5 2-8.5 7-8.7 6.4-1.4-4.8 11.2-14.4 12-9"/><path inkscape:label="brow-right" sodipodi:nodetypes="ccccc" id="path810" d="M326.2 84.1c-5.2-1.9-10.7-.5-11-2.3-1-6 14.3 0 14.3 3.3 0 .2-1.6-.3-3.3-1"/></g><path inkscape:label="outline" sodipodi:nodetypes="cccssccccsccccccsccccccscccccsscccccccsccccccccccccsccccccccccccccscccsccccccccscccccccccccccccccscccccccccsccccccccccscsscccccccccccccccccccccccssccscccccccccccccccccccccccccccccccsccsccccscccccccccsccccccsscccscscccccccccccccccccccsccccccccccccccccccccscccccccccccccccscccccccccccscccccscccccssccsccccsccccccccscsccscccscscc" id="path806" d="M196 421.5c-3.5-.7-9.3-4-10.3-5.8-2.4-4.7 1-11.1 8.6-16.3a60 60 0 0 1 12.5-6.3q.8.1.8-3.5c0-2.7-.2-3.4-.7-3.1s-3.3 2-6.3 4.1q-30.8 20.4-84.1 26c-29.5 3.1-77 2.5-100.8-1.2-12-1.9-15.7-3.8-15.7-8.3 0-2 .4-2.7 2.3-4.6 1.2-1.2 4.3-3.2 6.8-4.4 9.1-4.6 18.6-7.2 44.1-12.3a256 256 0 0 0 56.3-16c11-4.9 20.5-11.3 20-13.2a459 459 0 0 0-25.6-39c-4-5.1-5.6-9-5.6-12.9 0-3.3 1.4-6.7 3.1-7.3q1-.3.8-3.7c-.1-7.4 5.2-11 12.6-8.5q2.8 1 3.8.3 3.3-1.8 8.7 1.8c4.2 2.8 6.5 5.5 10.9 12.3 3.1 4.9 4.2 5.7 4.2 3.4 0-1.8 3.9-13 5.8-16.7a45 45 0 0 1 27-22.4l3-.7 3-6.2c1.8-3.4 4.6-8.4 6.4-11.1 5.6-8.6 7.8-12 7.8-12.7q-.2-.5-1.7-.6a78 78 0 0 1-32.3-13.8l-6-4.6c-.8-.6-2-.4-6 .8-4.3 1.3-6 1.5-13 1.5-8 .1-8.2 0-12-1.8-7.6-3.6-12-9.5-9.6-13.2a7 7 0 0 0 1-3.2c0-5.5 5-9 17.2-11.6 2.7-.6 5-1.3 5.2-1.4.2-.2-.2-1.7-1-3.2-1.3-3.2-1.5-7-.5-9a6 6 0 0 1 2.6-1.9c2.5-1 4.8-.4 9 2.9 1.8 1.4 5.1 3.5 7.5 4.8a17 17 0 0 1 5 3.5q2.1 3 13.6 3.5a30 30 0 0 0 24.7-8.5c4.1-4 9.6-11.2 12.1-16 1.8-3.4 1.9-3.8 1.8-10-.2-19.2-5.1-19.4-5.3-19.4-.5 0-10 17.5-3 2l1.5-3.6q-5.2-5.5-10-11.4l-4.5 5.3c-4.3 5.2-10.6 11.2 3.9-7a62 62 0 0 1-5-28c.2-1.9.2-2-2.5-3.4-5.8-3-9.2-8.4-9.2-14.7 0-8 5-13.2 14.2-14.8l3.7-.7 3.2-5.6c16.1-28 57-41.2 88.2-33.2a58 58 0 0 1 24 12.2c21-8.8 32.8 11.3 19.1 26q6.1 12.7 6.5 26.8v5.6l4.5 2.4c5.8 3 6.2 4.2.5 1.7-2.5-1.1-4.7-2-5-2-.8 0-1.3 6.9-5 14-.9 1.8-.8 1.8 1.8 4.5 3.3 3.3 3.5 5 .3 2.2-3.8-3.5-3.7-4.2-2.2 11.5.8 9.4 2.6 19.7 3.7 22l4.4 6.9c13 19.3 18.8 34.2 18.7 47.8-.2 8.9-2.9 16.6-7.6 20.8-6.7 6.1-15.7 8.6-30.7 8.6-6.2 0-8.4.2-8.9.8l-3.3 6.8c-4.7 11-7.6 14-15.2 16-5 1.1-6.8 1-9.8-.3-8-3.9-11.4-12.2-9.3-22.4a54 54 0 0 1 38.4-38.6l-.6-4.4q-2.2-12.5 1.7-1l1.6 4.7 4.8-.4q4.8-.2 5.3.3.2.7-1.8 1a69 69 0 0 0-26 10.4 60 60 0 0 0-14.2 15.3 34 34 0 0 0-5.6 18c0 4.9.7 7.8 2 7.8.1 0 .6-1.3.7-2.8.4-3.2 2.4-9.4 3.4-10.2q.8-.8.3 1c-1.4 7-1.6 8.6-1.4 12.1.3 5 1.4 6.4 5 6.2l2.7-.2v-4.7c0-2.7.5-5.8 1.1-7.6 1.2-3.7 2.4-4.8 1.7-1.5-.8 3.8-.6 11 .4 12 .8.8 1.1.8 2.8 0 2.5-1.3 5.1-5 9.3-13.4 2-3.8 3.9-7.2 4.3-7.6s5-.7 10.7-1c22.8-.7 31.9-6.5 34-21.7 2-12.6-4.3-29.3-19.2-51.6a34 34 0 0 1-3.7-7c-1.3-3.9-2.5-12.2-3.3-22q-.4-6-1.2-12l-3.8 3.6a36 36 0 0 1-10.8 7.5c-.4 0 1.3-1.9 3.8-4.2 4-3.7 10.3-11 10.3-12.1 0-2-22.6-12.2-27-12.2-.5 0-1.4 1.1-2 2.5a15 15 0 0 1-10.1 8.6A37 37 0 0 1 266 102l-4 3.6c-20 16.4-31.3 1.1-32.2 1.5-.5.5-3 2.6-5.5 4.5-6.5 5.2-15 15.4-14.1 16.9.7 1.2 10 6.5 15 8.5 14.4 6.2-9.4-.6-9.4-.6-.7.3 1.2 7 1.2 15.4.1 5.1-.1 6.6-1.1 8.9a69 69 0 0 1-20.5 24.5 33 33 0 0 1-19.5 4.6c-8.8 0-13.2-1.1-17.3-4.4a57 57 0 0 0-6.2-4.1c-2.1-1.1-5.1-3-6.7-4.1-3.1-2.3-5.4-2.7-6-1.2-.5 1.3.8 4.9 2.8 7.8 1.6 2.5 1.6 2.7.7 3.6-.6.6-3.4 1.6-6.2 2.3-9.9 2.2-13 3.4-15.2 5.2q-1.8 1.7-1.6 2.3c.2.2 2.3 0 4.5-.4 4.8-1 7.9-1 7.9-.3s-1.5 1.2-3 1.2c-1.9 0-8.5 2.5-9.7 3.6-1.4 1.3-1.7 4.1-.4 5.2.6.5 1.5.4 4-1 1.9-.8 4.7-1.6 6.7-1.8 4.5-.4 4.8.7.4 1.6-3.2.6-6.7 2.6-7.1 3.9-.4 1 3.9 3 8.3 3.7 6 1 14.2-.3 20.7-3l2.7-1.2 4.5 3.9a68 68 0 0 0 29.7 15.3c8.6 1.8 9.1 1.7 11-1.2 2.7-4.2 8.6-17.7 11.3-25.8q4.3-12.5 1.8-.5a131 131 0 0 1-15 35.4l-7.1 11.3a116 116 0 0 0-16.7 38.9l-1.4 6.2.3-5.5c.1-3 .9-8.4 1.7-11.8a42 42 0 0 0 1.2-6.8c-.4-.6-3.7.5-8.5 3a36 36 0 0 0-8.7 6.8c-4.1 4.2-5.6 6-8 11a62 62 0 0 0-6.2 20.3c-.4 3.2-.2 4.2 2 10.4 2.5 7.4 3.5 12.4 2.5 11.7-.3-.2-1.1-2-1.9-4a195 195 0 0 0-12.3-25.2 45 45 0 0 0-10-11.4c-2.8-2-5.8-2.2-6.8-.5s-.7 6 .7 10.2q1.9 6.5-.6 3.3c-1.7-2.3-3.1-7-3.2-10.6 0-4-.6-4.6-4.2-4.6-3.8 0-5.2 1.4-5 5.3a26 26 0 0 0 4 12c1 2 1.8 3.9 1.6 4-.5.6-3.4-2.5-5.5-6-2.1-3.3-2.8-3.5-3.9-1.3-1.5 3 0 6.2 9.5 19.7l10.7 16C137.9 362 140 364.7 145 367s8.2 1.1 12.8-4.6c4.2-5.2 7-7.5 10.5-8.5 5.8-1.8 11.1-1.5 22.4 3.8a237 237 0 0 0 25 7.7l5.4-5a45 45 0 0 1 22.6-14.3c.4.2-1.2 1.5-3.6 2.8a57 57 0 0 0-25.5 26.8c-2 5.3-3.5 12.1-3.5 16.7v3.4l-3 1c-12 4.3-20.5 11.7-18.8 16.5q1.3 3.8 4-.6a22 22 0 0 1 3.5-4.3c2.2-2 5.5-3.9 5.9-3.5.2.1-1.4 2-3.4 4-3.9 3.8-5.3 6.9-4 8.2.4.4 3.2.8 6.4.9l5.7.2.7-2.4c.8-2.7 5.2-7.6 6.9-7.6q1.3-.2-.5 1.7c-2.3 2.2-4 5.4-4 7 0 1.3.1 1.3 3.7 1 14.6-1.6 32.6-8 37-13 1.6-1.8 1.9-2.4 1.6-4.6a9 9 0 0 0-.5-2.8c-.2-.1-2.5.2-5.2.6a43 43 0 0 1-17.2-.4c-1.5-.7-.8-.8 6.2-1.1 6-.3 9-.8 12.8-2a75 75 0 0 0 28.6-16.7c13.6-12.4 28.6-37.5 36.2-60.7 1.3-3.8 2.4-13.7 1.7-30.7a404 404 0 0 0-2.8-22.8c-.8-5-1.5-6.7-2.2-10 .2-7.2 2-10.7 5.3-15a119 119 0 0 1 12.2-12.4h3L318 239.2c-4.2 5-5.8 11.9-5.3 15 1.7 5.9 3 11.7 4.3 20.3 2.2 12.8 1.6 33 1.2 37a97 97 0 0 1-7.5 23.9c-13 29-30.4 49.5-49.8 58.7l-4.5 2.1v4c0 6.7-2.6 9.6-13 14a90 90 0 0 1-47.5 7.4zm-90.7-7.8a273 273 0 0 0 54.9-9.3 142 142 0 0 0 49-24.4c.3-.3 1-1.9 1.6-3.5l2.4-5.7q1.5-2.8.6-3-10-2.6-20-6.1a54 54 0 0 0-17.8-5.2c-4.6-.2-5.3-.1-8.3 1.4-2.6 1.2-3.9 2.4-6.3 5.7-1.7 2.3-4.2 5-5.6 6-2.1 1.4-3 1.7-6.3 1.7-5.2 0-8.6-1.8-13.4-6.8l-3.7-3.9-5.3 3.7a117 117 0 0 1-30.9 14.6 318 318 0 0 1-41.4 10.4c-26.6 5.4-34.6 7.7-42.9 11.8-7.5 3.7-9.5 6-6.5 8a197 197 0 0 0 38.8 5c11.3.7 51 .4 61.1-.4M211.8 122c3.7-4.8 11.7-12.8 16.5-16.4-2.3-2.7-.9-5.1 2.3-1.6 1.5 0 5-3.7 6.2-2.3 1.4 1.4-5.4 2.5-3.2 5a16 16 0 0 0 10.2 3.8c9.5-.5 20-6.8 18.4-17.2l-4.4-.7c-7.2-1.1-12.3-4.6-13.3-9.1-.5-2.7 1.7-6.6 5.1-8.9 4.4-3 8.8-4.3 14.7-4.6 15.7-1 13.2 9.5 11.9 12.3a27 27 0 0 1-8.7 8.9c-1.8 1-2 1.3-1.9 3 .4 4 1 4.6 5.5 6a31 31 0 0 0 17 .2c5-2.2 11.7-8.6 6.1-9.4q-2.2-.5-2.3-1.2c0-.7.7-.9 3-.7 2.8.2 3 0 3.3-1 .2-2 1.7-1.7 2 .4.3 3.8 9.1 2.7 24.4 12l3.8 2.4a30 30 0 0 0 4.8-13.5c0-2 0-2-4.2-3.2a87 87 0 0 0-33.2-2.3q-5.4.7-2-1.4c1.8-1 17.6-1.4 23.8-.5 4.2.5 8.9 1.6 15.2 3.3.8.3 1-.1 1-3.8 0-22.7-15.9-39.7-16.3-42-.3-1.4 8-5.6 11.3-2.8 3.6 3-11.8-1.8-5.6 5.7 3 3.8 4.7 8.2 5.7 8.2 3.1 0 8.1-13.7-1.7-18.5-5-2.5-10.4-.5-15.4 1.2a69 69 0 0 0-30.6-13.8c-25.6-4.1-64.4 5.5-80 36.4-1.8 3.4-2.7 4-6.2 4-5.2 0-10.6 4-11.8 8.8a12 12 0 0 0 5.9 13c3.5 1.2 3.4-7.3 4.3-11.7.4-2.5-4-1.2-5.4-.8q-3.2 1-1-1.1c3.4-2.7 10.4-1.4 9.9.4-1.8 6-2.3 9-2.5 17.6-.2 5.9 0 11.3.3 14 1 5.9 3.5 13.9 4.3 13.9.2 0 13.5-12 29.2-16.8 4.7-1.6 8.7 0 5 .5a108 108 0 0 0-31.7 16.6c-1.6 1.5-1.7 1.5-.8 3.4 1 2 6.6 8.5 7.4 8.5.3 0 1.9-2 3.7-4.2m49.3-43.8c7.2-1.7 9.3-2.5 9.3-3.4 0-2.8-14.1-1.3-18.1 2-1.7 1.3-1.2 2.9 1 2.9.9 0 4.4-.6 7.8-1.4z" style="display:inline"/><path inkscape:label="logo-mid-bottom-over-belly" id="path2-6-6" d="M254.8 219.5c-24.9 0-45 20.4-45 45.5a45.3 45.3 0 0 0 45 45.5h10.9l126-.4v-89.8L351 220c-13.3 10.8-31.6 7.9-33.3 7.8 0 0-3.7 0-5.2.6-2.3 4-6.2 14.3-9.3 17.7a21 21 0 0 1-11.2 5.6c-7 1.7-11.8-3.3-11.8-3.3-8.8-7.6-6.2-20.6-2.4-28.4h-3.4v-.6z" class="cls-1" style="fill:#aed0ea;stroke-width:.290769"/><path inkscape:label="nose-fill" sodipodi:nodetypes="ccc" id="path796" d="M271.8 74.2c-.5 4.8-19.9 8.2-21.8 4.5-.2-6.3 19.1-8.5 21.8-4.5" style="display:inline;fill:#3f3128;fill-opacity:1"/><path inkscape:label="logo-mid-bottom-shade" sodipodi:nodetypes="cccccccccsccc" id="rect1" d="M284.1 251s4 2 9.7.3c1.5-.5 8.4-1.8 12-9.4 3-6.2 6.2-12.9 6.6-13.4 4-1.4 19.2.6 31-3.9.9-.4 3.2-1 7.6-4.5 1.6-.1-3.4 4.2-3.4 4.2-11.5 6.7-25.2 6.2-29.6 7.7-.6.3-3.4.5-5.1 6.4a21 21 0 0 1-9.3 14c-10.3 6.2-17.4 4-21.4 2.3-7-3.1-7.3-14.6-7.3-14.6s1.1 7.2 9.2 11" style="fill:#74b0da;fill-opacity:1"/></svg>